<svg xmlns="http://www.w3.org/2000/svg" viewBox="0 0 512 512" role="img" aria-labelledby="title desc">
  <title id="title">Prompt Atelier</title>
  <desc id="desc">A soft stationery-style app icon with the letters PA.</desc>
  <defs>
    <linearGradient id="bg" x1="88" y1="64" x2="424" y2="448" gradientUnits="userSpaceOnUse">
      <stop offset="0" stop-color="#fffaf4"/>
      <stop offset="0.48" stop-color="#f7e8e3"/>
      <stop offset="1" stop-color="#dce7d7"/>
    </linearGradient>
    <linearGradient id="paper" x1="152" y1="128" x2="360" y2="392" gradientUnits="userSpaceOnUse">
      <stop offset="0" stop-color="#ffffff"/>
      <stop offset="1" stop-color="#f6efe7"/>
    </linearGradient>
    <filter id="shadow" x="-20%" y="-20%" width="140%" height="140%">
      <feDropShadow dx="0" dy="18" stdDeviation="18" flood-color="#5c4638" flood-opacity="0.14"/>
    </filter>
  </defs>
  <rect width="512" height="512" rx="116" fill="url(#bg)"/>
  <circle cx="405" cy="124" r="42" fill="#f4cbd2" opacity="0.72"/>
  <circle cx="104" cy="382" r="54" fill="#d7eadf" opacity="0.76"/>
  <path d="M122 144c0-23 19-42 42-42h184l56 56v210c0 23-19 42-42 42H164c-23 0-42-19-42-42V144z" fill="url(#paper)" filter="url(#shadow)"/>
  <path d="M348 103v52c0 10 8 18 18 18h38" fill="#eadbd0"/>
  <path d="M165 336c58-80 98-128 121-145 17-12 36-18 58-18" fill="none" stroke="#c88f8d" stroke-width="18" stroke-linecap="round"/>
  <path d="M170 282h116" stroke="#71866d" stroke-width="18" stroke-linecap="round"/>
  <path d="M170 224h78" stroke="#806f67" stroke-width="18" stroke-linecap="round" opacity="0.72"/>
  <text x="256" y="352" text-anchor="middle" font-family="Georgia, 'Times New Roman', serif" font-size="112" font-weight="700" fill="#4a3935">PA</text>
</svg>
